<svg width="128" height="128" viewBox="0 0 128 128" fill="none" xmlns="http://www.w3.org/2000/svg">
<g clip-path="url(#clip0_237_43)">
<path d="M124.737 58.3773L69.621 3.26331C66.449 0.0893126 61.301 0.0893126 58.124 3.26331L46.68 14.7093L61.198 29.2273C64.573 28.0883 68.441 28.8523 71.13 31.5413C73.833 34.2473 74.591 38.1483 73.424 41.5343L87.416 55.5273C90.801 54.3603 94.708 55.1143 97.41 57.8223C101.19 61.5993 101.19 67.7223 97.41 71.5013C96.5117 72.4 95.4452 73.113 94.2713 73.5994C93.0974 74.0858 91.8392 74.3361 90.5685 74.3361C89.2978 74.3361 88.0396 74.0858 86.8657 73.5994C85.6919 73.113 84.6253 72.4 83.727 71.5013C82.3774 70.1509 81.4574 68.4314 81.0829 66.5593C80.7083 64.6871 80.8959 62.7461 81.622 60.9803L68.574 47.9323L68.572 82.2733C69.5187 82.7395 70.383 83.3569 71.131 84.1013C74.909 87.8783 74.909 93.9993 71.131 97.7843C67.352 101.561 61.227 101.561 57.452 97.7843C53.674 94.0003 53.674 87.8793 57.452 84.1013C58.3572 83.1947 59.4338 82.4775 60.619 81.9913V47.3323C59.4328 46.8475 58.3559 46.1297 57.452 45.2213C54.59 42.3613 53.901 38.1613 55.369 34.6453L41.056 20.3323L3.26401 58.1223C1.73933 59.6475 0.882812 61.7157 0.882812 63.8723C0.882813 66.0289 1.73933 68.0972 3.26401 69.6223L58.381 124.736C61.555 127.91 66.701 127.91 69.88 124.736L124.738 69.8783C126.262 68.3527 127.119 66.2843 127.118 64.1276C127.118 61.971 126.262 59.9026 124.737 58.3773Z" fill="#F34F29"/>
</g>
<defs>
<clipPath id="clip0_237_43">
<rect width="128" height="128" fill="white"/>
</clipPath>
</defs>
</svg>
