<?xml version="1.0" encoding="utf-8"?><svg xmlns="http://www.w3.org/2000/svg" xmlns:xlink="http://www.w3.org/1999/xlink"><symbol viewBox="0 0 15 12" id="arrow-down" xmlns="http://www.w3.org/2000/svg"><path d="M7.989 11.998a.997.997 0 0 1-.639-.23L1.36 6.77a1.001 1.001 0 0 1 1.278-1.539L7.99 9.71l5.35-4.318a.998.998 0 0 1 1.408.15 1 1 0 0 1-.14 1.46l-5.99 4.827a.997.997 0 0 1-.628.17Z"/></symbol><symbol viewBox="0 0 16 16" id="code-square" xmlns="http://www.w3.org/2000/svg"><g clip-path="url(#ba)"><path d="M14 1a1 1 0 0 1 1 1v12a1 1 0 0 1-1 1H2a1 1 0 0 1-1-1V2a1 1 0 0 1 1-1h12ZM2 0a2 2 0 0 0-2 2v12a2 2 0 0 0 2 2h12a2 2 0 0 0 2-2V2a2 2 0 0 0-2-2H2Z"/><path d="M6.854 4.646a.5.5 0 0 1 0 .708L4.207 8l2.647 2.646a.5.5 0 1 1-.708.708l-3-3a.5.5 0 0 1 0-.708l3-3a.5.5 0 0 1 .708 0Zm2.292 0a.5.5 0 0 0 0 .708L11.793 8l-2.647 2.646a.5.5 0 1 0 .708.708l3-3a.5.5 0 0 0 0-.708l-3-3a.5.5 0 0 0-.708 0Z"/></g><defs><clipPath id="ba"><path d="M0 0h16v16H0z"/></clipPath></defs></symbol><symbol viewBox="0 0 24 24" id="codepen" xmlns="http://www.w3.org/2000/svg"><g clip-path="url(#da)"><path d="M23.992 8.254c-.002-.015-.006-.029-.009-.044a.986.986 0 0 0-.018-.085c-.004-.017-.01-.033-.016-.05a1.03 1.03 0 0 0-.026-.074l-.023-.05a.78.78 0 0 0-.035-.067l-.03-.047a.922.922 0 0 0-.13-.161 1.187 1.187 0 0 0-.1-.089l-.046-.035c-.006-.004-.011-.009-.017-.012L12.572.315a1.04 1.04 0 0 0-1.143 0L.458 7.54l-.017.012a.992.992 0 0 0-.105.084c-.014.012-.027.026-.04.04a.887.887 0 0 0-.131.16.887.887 0 0 0-.065.115l-.023.05c-.01.025-.018.05-.026.074-.006.017-.012.033-.016.05a.801.801 0 0 0-.018.085l-.009.044A.97.97 0 0 0 0 8.387v7.225c0 .045.003.09.01.134.001.014.005.03.008.043a.77.77 0 0 0 .018.086c.004.017.01.033.016.05.008.024.016.05.026.074l.023.05a1.193 1.193 0 0 0 .065.114.911.911 0 0 0 .13.161l.041.04a.918.918 0 0 0 .105.084c.006.003.012.008.017.012l10.97 7.225a1.04 1.04 0 0 0 1.144 0l10.969-7.225c.006-.004.01-.009.017-.012a1.232 1.232 0 0 0 .105-.084l.041-.04a.99.99 0 0 0 .13-.16l.03-.048a.93.93 0 0 0 .035-.068l.023-.049c.01-.025.018-.05.026-.075.006-.016.012-.032.016-.049a.99.99 0 0 0 .018-.085l.009-.044a.995.995 0 0 0 .01-.134V8.387a1.208 1.208 0 0 0-.01-.133Zm-10.96-5.188 8.08 5.323-3.609 2.385-4.471-2.955V3.066Zm-2.063 0V7.82L6.5 10.774 2.888 8.39l8.08-5.323Zm-8.906 7.229L4.643 12l-2.58 1.705v-3.41Zm8.906 10.638-8.08-5.322 3.61-2.385 4.47 2.955v4.752Zm1.032-6.522L8.353 12 12 9.59 15.648 12l-3.647 2.41Zm1.031 6.522v-4.752l4.471-2.955 3.61 2.385-8.081 5.322Zm8.906-7.228L19.358 12l2.58-1.705v3.41Z"/></g><defs><clipPath id="da"><path d="M0 0h24v24H0z"/></clipPath></defs></symbol><symbol viewBox="0 0 24 24" id="codepen-circle" xmlns="http://www.w3.org/2000/svg"><g clip-path="url(#ca)"><path d="M18.144 13.067v-2.134L16.55 12l1.594 1.067Zm1.276 1.194a.64.64 0 0 1-.006.083l-.005.028-.011.053-.01.031a.454.454 0 0 1-.017.047l-.014.03a.854.854 0 0 1-.021.043l-.019.03a.571.571 0 0 1-.08.1l-.026.025a.572.572 0 0 1-.036.03l-.029.022-.01.008-6.782 4.522a.637.637 0 0 1-.708 0L4.864 14.79l-.01-.008a.6.6 0 0 1-.065-.052l-.026-.025-.032-.034-.021-.028a.589.589 0 0 1-.067-.11l-.014-.031a.637.637 0 0 1-.017-.047l-.01-.03a.512.512 0 0 1-.01-.054l-.006-.028a.628.628 0 0 1-.006-.083V9.739a.58.58 0 0 1 .006-.083l.005-.027.011-.054.01-.03a.574.574 0 0 1 .12-.217l.031-.034.026-.025a.62.62 0 0 1 .065-.052l.01-.008 6.782-4.521a.638.638 0 0 1 .708 0l6.782 4.521.01.008.03.022.035.03c.01.008.017.016.026.025.03.03.057.064.08.1l.019.03a.675.675 0 0 1 .021.043l.014.03c.007.016.012.032.017.047l.01.031a.512.512 0 0 1 .01.054l.006.027a.607.607 0 0 1 .006.083v4.522ZM12 0C5.373 0 0 5.372 0 12c0 6.627 5.373 12 12 12 6.628 0 12-5.372 12-12 0-6.627-5.372-12-12-12Zm0 10.492L9.745 12 12 13.51 14.255 12 12 10.492Zm.638 4.124v2.975l4.996-3.33-2.232-1.493-2.764 1.848Zm-6.272-.356 4.996 3.33v-2.974l-2.764-1.849-2.232 1.493Zm11.268-4.52-4.996-3.33v2.974l2.764 1.85 2.232-1.494Zm-6.272-.356V6.41L6.366 9.74l2.232 1.493 2.764-1.849Zm-5.506 1.549v2.134L7.45 12l-1.594-1.067Z"/></g><defs><clipPath id="ca"><path d="M0 0h24v24H0z"/></clipPath></defs></symbol><symbol viewBox="0 0 16 16" id="design-square" xmlns="http://www.w3.org/2000/svg"><g clip-path="url(#ea)"><path d="M14 1a1 1 0 0 1 1 1v12a1 1 0 0 1-1 1H2a1 1 0 0 1-1-1V2a1 1 0 0 1 1-1h12ZM2 0a2 2 0 0 0-2 2v12a2 2 0 0 0 2 2h12a2 2 0 0 0 2-2V2a2 2 0 0 0-2-2H2Z"/><path d="M10.93 6.353c.161.28.459.47.803.47a.93.93 0 0 0 .66-.275.945.945 0 0 0 0-1.331.928.928 0 0 0-1.464.195H9.867V4.47A.473.473 0 0 0 9.4 4H6.6a.473.473 0 0 0-.467.47v.942H5.071a.928.928 0 0 0-.804-.47.93.93 0 0 0-.66.275.945.945 0 0 0 0 1.33.93.93 0 0 0 .66.277c.344 0 .642-.19.804-.471h1.062v.174c-1.338.692-1.718 1.96-1.824 2.65H3.8a.473.473 0 0 0-.467.47v1.882c0 .125.05.245.137.333A.465.465 0 0 0 3.8 12h1.867a.465.465 0 0 0 .466-.47V9.646a.473.473 0 0 0-.466-.47h-.41c.092-.452.335-1.133.973-1.609a.46.46 0 0 0 .37.197h2.8a.454.454 0 0 0 .37-.197c.64.476.884 1.156.975 1.608h-.412a.472.472 0 0 0-.467.47v1.883a.473.473 0 0 0 .467.471H12.2a.465.465 0 0 0 .467-.47V9.646a.473.473 0 0 0-.467-.47h-.51c-.105-.69-.486-1.959-1.823-2.65v-.174h1.062ZM5.2 11.059h-.933v-.941H5.2v.94Zm6.533 0H10.8v-.941h.933v.94Zm-2.8-4.235H7.067V4.94h1.866v1.883Z"/></g><defs><clipPath id="ea"><path d="M0 0h16v16H0z"/></clipPath></defs></symbol><symbol viewBox="0 0 24 21" id="email" xmlns="http://www.w3.org/2000/svg"><path d="M22.5 3h-21A1.5 1.5 0 0 0 0 4.5v15A1.5 1.5 0 0 0 1.5 21h21a1.5 1.5 0 0 0 1.5-1.5v-15A1.5 1.5 0 0 0 22.5 3Zm-1.155 16.5h-18.6l5.25-5.43-1.08-1.043L1.5 18.63V5.64l9.322 9.277a1.5 1.5 0 0 0 2.116 0l9.562-9.51v13.125l-5.52-5.52-1.058 1.058 5.423 5.43ZM2.483 4.5h18.802l-9.405 9.352L2.482 4.5Z"/></symbol><symbol viewBox="0 0 18 24" id="facebook" xmlns="http://www.w3.org/2000/svg"><path d="M13.796 24V13.07h3.554l.528-4.28h-4.082V6.066c0-1.235.331-2.08 2.04-2.08H18V.17A27.683 27.683 0 0 0 14.829 0c-3.141 0-5.298 1.99-5.298 5.642v3.14H6v4.28h3.539V24h4.257Z"/></symbol><symbol viewBox="0 0 24 24" id="facebook-circle" xmlns="http://www.w3.org/2000/svg"><g clip-path="url(#ga)"><path d="M24 12.073C24 5.404 18.627 0 12 0 5.37 0-.003 5.405-.003 12.075c0 6.026 4.389 11.02 10.125 11.927v-8.438H7.077v-3.489h3.048V9.413c0-3.026 1.793-4.697 4.533-4.697 1.314 0 2.687.236 2.687.236v2.97H15.83c-1.49 0-1.954.931-1.954 1.887v2.264h3.326l-.53 3.49h-2.798V24C19.611 23.094 24 18.099 24 12.073Z"/></g><defs><clipPath id="ga"><path d="M0 0h24v24H0z"/></clipPath></defs></symbol><symbol viewBox="0 0 110 129" id="figma-color" xmlns="http://www.w3.org/2000/svg"><g clip-path="url(#ia)"><path d="M45.5 129c11.9 0 21.5-9.6 21.5-21.5V86H45.5C33.6 86 24 95.6 24 107.5S33.6 129 45.5 129ZM24 64.5C24 52.6 33.6 43 45.5 43H67v43H45.5C33.6 86 24 76.4 24 64.5ZM24 21.5C24 9.6 33.6 0 45.5 0H67v43H45.5C33.6 43 24 33.4 24 21.5ZM67 0h21.5C100.4 0 110 9.6 110 21.5S100.4 43 88.5 43H67V0ZM110 64.5c0 11.9-9.6 21.5-21.5 21.5S67 76.4 67 64.5 76.6 43 88.5 43 110 52.6 110 64.5Z"/></g><defs><clipPath id="ia"><path d="M0 0h128v128H0z"/></clipPath></defs></symbol><symbol viewBox="0 0 21 24" id="git-branch" xmlns="http://www.w3.org/2000/svg"><path fill-rule="evenodd" clip-rule="evenodd" d="M6.6 1.714c-.994 0-1.8.768-1.8 1.715 0 .946.806 1.714 1.8 1.714s1.8-.768 1.8-1.714c0-.947-.806-1.715-1.8-1.715ZM3 3.43C3 1.535 4.612 0 6.6 0s3.6 1.535 3.6 3.429c0 1.893-1.612 3.428-3.6 3.428S3 5.322 3 3.43Zm3.6 15.427c-.994 0-1.8.768-1.8 1.714 0 .947.806 1.715 1.8 1.715s1.8-.768 1.8-1.715c0-.946-.806-1.714-1.8-1.714ZM3 20.571c0-1.893 1.612-3.428 3.6-3.428s3.6 1.535 3.6 3.428C10.2 22.465 8.588 24 6.6 24S3 22.465 3 20.571Z"/><path fill-rule="evenodd" clip-rule="evenodd" d="M6.6 5.143c.497 0 .9.384.9.857v12c0 .473-.403.857-.9.857s-.9-.384-.9-.857V6c0-.473.403-.857.9-.857Zm10.8 0c-.994 0-1.8.767-1.8 1.714s.806 1.714 1.8 1.714 1.8-.767 1.8-1.714-.806-1.714-1.8-1.714Zm-3.6 1.714c0-1.893 1.612-3.428 3.6-3.428S21 4.964 21 6.857c0 1.894-1.612 3.429-3.6 3.429s-3.6-1.535-3.6-3.429Z"/><path fill-rule="evenodd" clip-rule="evenodd" d="M17.4 8.571c.497 0 .9.384.9.858 0 1.979-.806 3.27-2.081 4.097-1.184.767-2.715 1.087-4.035 1.349l-.214.042c-1.317.26-2.421.48-3.237.922-.404.219-.698.475-.896.791-.198.315-.337.746-.337 1.37 0 .473-.403.857-.9.857s-.9-.384-.9-.857c0-.876.199-1.623.592-2.25.392-.624.942-1.071 1.55-1.401 1.076-.583 2.454-.854 3.673-1.093l.301-.06c1.38-.273 2.55-.543 3.39-1.088.75-.486 1.294-1.23 1.294-2.68 0-.473.403-.857.9-.857Z"/></symbol><symbol viewBox="0 0 24 24" id="github" xmlns="http://www.w3.org/2000/svg"><g clip-path="url(#la)"><path d="M24 8.389C24 9.796 23.781 11 23.344 12c-.438 1-1.073 1.768-1.907 2.306-.833.537-1.666.926-2.5 1.166-.833.241-1.812.417-2.937.528.792.593 1.188 1.537 1.188 2.833v5H8.5v-3.61c-.667.11-1.281.166-1.844.166-.562 0-1.041-.046-1.437-.139a5.295 5.295 0 0 1-1.063-.361 3.181 3.181 0 0 1-.75-.472 4.698 4.698 0 0 1-.469-.473 1.41 1.41 0 0 1-.25-.388l-.062-.167a6.297 6.297 0 0 0-.844-1.333c-.312-.37-.573-.612-.781-.723l-.313-.166C.23 15.833 0 15.602 0 15.472s.146-.213.438-.25h.374c.5.037.98.185 1.438.445.458.259.77.518.938.777l.312.334c1.125 1.74 2.813 2.166 5.063 1.278.124-.89.5-1.575 1.124-2.056-1.124-.111-2.104-.287-2.937-.528a9.023 9.023 0 0 1-2.469-1.166C3.47 13.769 2.833 13 2.375 12c-.458-1-.688-2.204-.688-3.611 0-1.593.605-2.963 1.813-4.111-.542-1.222-.48-2.593.188-4.111.124.037.291.027.5-.028.208-.056.729.055 1.562.333.833.278 1.75.713 2.75 1.306a20.635 20.635 0 0 1 4.375-.556c1.5.037 2.958.222 4.375.556.958-.593 1.844-1.019 2.656-1.278.813-.26 1.365-.389 1.657-.389L22 .167c.708 1.518.77 2.889.188 4.11C23.395 5.427 24 6.798 24 8.39ZM2 15.917c.042-.093-.01-.167-.156-.223-.146-.055-.24-.037-.282.056-.041.093.01.167.157.222.146.056.24.037.281-.055Zm.719.694c.104-.074.083-.176-.063-.305-.146-.13-.27-.158-.375-.084-.104.074-.083.176.063.306.146.13.27.157.375.083Zm.656.889c.125-.074.125-.194 0-.361-.125-.167-.25-.213-.375-.139-.125.074-.125.194 0 .361.125.167.25.213.375.139Zm.969.889c.104-.111.073-.25-.094-.417-.167-.166-.313-.194-.438-.083-.124.111-.093.25.094.417.188.166.334.194.438.083Zm1.281.472c.042-.13-.052-.231-.281-.305-.23-.075-.365-.038-.407.11-.041.149.053.25.282.306.229.056.364.019.406-.11Zm1.063.306c.25 0 .375-.074.375-.223 0-.148-.125-.222-.375-.222s-.375.074-.375.222c0 .149.125.223.375.223Zm1.375-.111a.741.741 0 0 0 .28-.14c.063-.055.074-.101.032-.138 0-.185-.125-.26-.375-.222a.74.74 0 0 0-.281.138c-.063.056-.073.12-.032.195 0 .148.125.204.375.167Z"/></g><defs><clipPath id="la"><path d="M0 0h24v24H0z"/></clipPath></defs></symbol><symbol viewBox="0 0 24 23" id="github-circle" xmlns="http://www.w3.org/2000/svg"><g clip-path="url(#ka)"><path d="M12 0C5.37 0 0 5.37 0 12c0 5.31 3.435 9.795 8.205 11.385.6.105.825-.255.825-.57 0-.285-.015-1.23-.015-2.235-3.015.555-3.795-.735-4.035-1.41-.135-.345-.72-1.41-1.23-1.695-.42-.225-1.02-.78-.015-.795.945-.015 1.62.87 1.845 1.23 1.08 1.815 2.805 1.305 3.495.99.105-.78.42-1.305.765-1.605-2.67-.3-5.46-1.335-5.46-5.925 0-1.305.465-2.385 1.23-3.225-.12-.3-.54-1.53.12-3.18 0 0 1.005-.315 3.3 1.23.96-.27 1.98-.405 3-.405s2.04.135 3 .405c2.295-1.56 3.3-1.23 3.3-1.23.66 1.65.24 2.88.12 3.18.765.84 1.23 1.905 1.23 3.225 0 4.605-2.805 5.625-5.475 5.925.435.375.81 1.095.81 2.22 0 1.605-.015 2.895-.015 3.3 0 .315.225.69.825.57A12.018 12.018 0 0 0 24 12c0-6.63-5.37-12-12-12Z"/></g><defs><clipPath id="ka"><path d="M0 0h24v24H0z"/></clipPath></defs></symbol><symbol viewBox="0 0 108 127" id="html-color" xmlns="http://www.w3.org/2000/svg"><path d="m19.569 27 8.087 89.919 36.289 9.682 36.39-9.499L108.431 27H19.569Zm72.04 20.471-.506 5.834L90.88 56H48.31l1.018 12h40.54l-.271 2.231-2.615 28.909-.192 1.69L64 106.964v-.005l-.027.012-22.777-5.916L39.65 84h11.168l.79 8.46 12.386 3.139.006-.234v.012l12.412-2.649L77.708 79H39.153l-2.734-30.836L36.152 45h55.724l-.266 2.471ZM27.957 1.627h5.622v5.556h5.144V1.627h5.623v16.822h-5.623v-5.633H33.58v5.633h-5.623V1.627Zm23.782 5.579h-4.95v-5.58h15.525v5.58H57.36v11.243h-5.623V7.206Zm13.039-5.58h5.862l3.607 5.912 3.603-5.911h5.865v16.822h-5.601v-8.338l-3.867 5.981h-.098l-3.87-5.981v8.338h-5.502V1.627Zm21.736.001h5.624v11.262h7.907v5.561H86.513V1.627Z"/></symbol><symbol viewBox="0 0 127 127" id="javascript-color" xmlns="http://www.w3.org/2000/svg"><path d="M1.408 1.408h125.184v125.185H1.408V1.408Z"/><path d="M116.347 96.737c-.917-5.711-4.641-10.508-15.672-14.981-3.832-1.761-8.104-3.022-9.377-5.926-.452-1.69-.512-2.642-.226-3.665.821-3.32 4.784-4.355 7.925-3.403 2.023.678 3.938 2.237 5.093 4.724 5.402-3.498 5.391-3.475 9.163-5.88-1.381-2.14-2.118-3.128-3.022-4.044-3.249-3.63-7.676-5.498-14.756-5.355l-3.688.477c-3.534.893-6.902 2.748-8.877 5.235-5.926 6.724-4.236 18.492 2.975 23.335 7.104 5.332 17.54 6.545 18.873 11.53 1.297 6.105-4.486 8.081-10.234 7.379-4.236-.881-6.592-3.034-9.139-6.95-4.688 2.714-4.688 2.714-9.508 5.486 1.143 2.499 2.344 3.63 4.26 5.795 9.068 9.198 31.76 8.746 35.83-5.176.165-.478 1.261-3.666.38-8.581ZM69.462 58.944H57.753l-.048 30.272c0 6.438.333 12.34-.714 14.149-1.713 3.558-6.152 3.117-8.175 2.427-2.059-1.012-3.106-2.451-4.319-4.485-.333-.584-.583-1.036-.667-1.071l-9.52 5.83c1.583 3.249 3.915 6.069 6.902 7.901 4.462 2.678 10.46 3.499 16.731 2.059 4.082-1.189 7.604-3.652 9.448-7.401 2.666-4.915 2.094-10.864 2.07-17.444.06-10.735.001-21.468.001-32.237Z"/></symbol><symbol viewBox="0 0 24 24" id="linkedin" xmlns="http://www.w3.org/2000/svg"><g clip-path="url(#pa)"><path d="M5.448 24V7.807H.304V24h5.144ZM2.876 5.595c1.795 0 2.911-1.243 2.911-2.797C5.754 1.208 4.671 0 2.911 0 1.15 0 0 1.209 0 2.798c0 1.554 1.116 2.797 2.843 2.797h.033ZM8.296 24h5.144v-9.043c0-.484.034-.967.17-1.313.372-.967 1.218-1.969 2.64-1.969 1.86 0 2.606 1.485 2.606 3.662V24H24v-9.285c0-4.974-2.538-7.288-5.923-7.288-2.775 0-3.994 1.623-4.67 2.728h.034V7.807H8.296c.067 1.52 0 16.193 0 16.193Z"/></g><defs><clipPath id="pa"><path d="M0 0h24v24H0z"/></clipPath></defs></symbol><symbol viewBox="0 0 24 24" id="linkedin-circle" xmlns="http://www.w3.org/2000/svg"><g clip-path="url(#oa)"><path fill-rule="evenodd" clip-rule="evenodd" d="M12 24c6.627 0 12-5.373 12-12S18.627 0 12 0 0 5.373 0 12s5.373 12 12 12ZM8.724 9.904V18H6.152V9.904h2.572Zm.17-2.505c0 .777-.559 1.399-1.456 1.399h-.017C6.558 8.798 6 8.176 6 7.398 6 6.605 6.575 6 7.455 6c.88 0 1.422.604 1.439 1.399ZM12.72 18h-2.572s.034-7.337 0-8.097h2.572v1.147c.342-.552.954-1.336 2.319-1.336C16.73 9.714 18 10.87 18 13.357V18h-2.572v-4.332c0-1.088-.373-1.83-1.303-1.83-.711 0-1.134.5-1.32.984-.068.173-.085.415-.085.657V18Z"/></g><defs><clipPath id="oa"><path d="M0 0h24v24H0z"/></clipPath></defs></symbol><symbol viewBox="0 0 24 24" id="moon" xmlns="http://www.w3.org/2000/svg"><g clip-path="url(#qa)"><path d="M9 .417a1.152 1.152 0 0 1 .12 1.287 10.812 10.812 0 0 0-1.317 5.19c0 6.031 4.917 10.915 10.977 10.915.79 0 1.56-.082 2.3-.24a1.18 1.18 0 0 1 1.215.475 1.099 1.099 0 0 1-.047 1.339A12.522 12.522 0 0 1 12.516 24C5.601 24 0 18.429 0 11.565 0 6.399 3.171 1.968 7.686.09A1.128 1.128 0 0 1 9 .417Z"/><path d="M16.191 4.722a.325.325 0 0 1 .618 0l.58 1.743c.26.777.869 1.386 1.646 1.646l1.743.58a.325.325 0 0 1 0 .618l-1.743.58a2.601 2.601 0 0 0-1.645 1.646l-.581 1.743a.325.325 0 0 1-.618 0l-.58-1.743a2.6 2.6 0 0 0-1.646-1.645l-1.743-.581a.326.326 0 0 1 0-.618l1.743-.58a2.6 2.6 0 0 0 1.646-1.646l.58-1.743ZM20.795.149a.218.218 0 0 1 .41 0l.388 1.16c.172.52.579.926 1.098 1.099l1.16.387a.218.218 0 0 1 0 .41l-1.16.388a1.734 1.734 0 0 0-1.098 1.098l-.387 1.16a.218.218 0 0 1-.412 0l-.387-1.16a1.734 1.734 0 0 0-1.098-1.098l-1.16-.387a.218.218 0 0 1 0-.411l1.16-.387a1.732 1.732 0 0 0 1.098-1.098l.387-1.161Z"/></g><defs><clipPath id="qa"><path d="M0 0h24v24H0z"/></clipPath></defs></symbol><symbol viewBox="0 0 127 120" id="react-color" xmlns="http://www.w3.org/2000/svg"><path d="M64 75.4c6.296 0 11.4-5.104 11.4-11.4S70.296 52.6 64 52.6 52.6 57.704 52.6 64 57.704 75.4 64 75.4Z"/><path d="M107.3 45.2c-2.2-.8-4.5-1.6-6.9-2.3.6-2.4 1.1-4.8 1.5-7.1 2.1-13.2-.2-22.5-6.6-26.1-1.9-1.1-4-1.6-6.4-1.6-7 0-15.9 5.2-24.9 13.9-9-8.7-17.9-13.9-24.9-13.9-2.4 0-4.5.5-6.4 1.6-6.4 3.7-8.7 13-6.6 26.1.4 2.3.9 4.7 1.5 7.1-2.4.7-4.7 1.4-6.9 2.3C8.2 50 1.4 56.6 1.4 64s6.9 14 19.3 18.8c2.2.8 4.5 1.6 6.9 2.3-.6 2.4-1.1 4.8-1.5 7.1-2.1 13.2.2 22.5 6.6 26.1 1.9 1.1 4 1.6 6.4 1.6 7.1 0 16-5.2 24.9-13.9 9 8.7 17.9 13.9 24.9 13.9 2.4 0 4.5-.5 6.4-1.6 6.4-3.7 8.7-13 6.6-26.1-.4-2.3-.9-4.7-1.5-7.1 2.4-.7 4.7-1.4 6.9-2.3 12.5-4.8 19.3-11.4 19.3-18.8s-6.8-14-19.3-18.8ZM92.5 14.7c4.1 2.4 5.5 9.8 3.8 20.3-.3 2.1-.8 4.3-1.4 6.6-5.2-1.2-10.7-2-16.5-2.5-3.4-4.8-6.9-9.1-10.4-13 7.4-7.3 14.9-12.3 21-12.3 1.3 0 2.5.3 3.5.9ZM81.3 74c-1.8 3.2-3.9 6.4-6.1 9.6-3.7.3-7.4.4-11.2.4-3.9 0-7.6-.1-11.2-.4-2.2-3.2-4.2-6.4-6-9.6-1.9-3.3-3.7-6.7-5.3-10 1.6-3.3 3.4-6.7 5.3-10 1.8-3.2 3.9-6.4 6.1-9.6 3.7-.3 7.4-.4 11.2-.4 3.9 0 7.6.1 11.2.4 2.2 3.2 4.2 6.4 6 9.6 1.9 3.3 3.7 6.7 5.3 10-1.7 3.3-3.4 6.6-5.3 10Zm8.3-3.3c1.5 3.5 2.7 6.9 3.8 10.3-3.4.8-7 1.4-10.8 1.9 1.2-1.9 2.5-3.9 3.6-6 1.2-2.1 2.3-4.2 3.4-6.2ZM64 97.8c-2.4-2.6-4.7-5.4-6.9-8.3 2.3.1 4.6.2 6.9.2 2.3 0 4.6-.1 6.9-.2-2.2 2.9-4.5 5.7-6.9 8.3Zm-18.6-15c-3.8-.5-7.4-1.1-10.8-1.9 1.1-3.3 2.3-6.8 3.8-10.3 1.1 2 2.2 4.1 3.4 6.1 1.2 2.2 2.4 4.1 3.6 6.1Zm-7-25.5c-1.5-3.5-2.7-6.9-3.8-10.3 3.4-.8 7-1.4 10.8-1.9-1.2 1.9-2.5 3.9-3.6 6-1.2 2.1-2.3 4.2-3.4 6.2ZM64 30.2c2.4 2.6 4.7 5.4 6.9 8.3-2.3-.1-4.6-.2-6.9-.2-2.3 0-4.6.1-6.9.2 2.2-2.9 4.5-5.7 6.9-8.3Zm22.2 21-3.6-6c3.8.5 7.4 1.1 10.8 1.9-1.1 3.3-2.3 6.8-3.8 10.3-1.1-2.1-2.2-4.2-3.4-6.2ZM31.7 35c-1.7-10.5-.3-17.9 3.8-20.3 1-.6 2.2-.9 3.5-.9 6 0 13.5 4.9 21 12.3-3.5 3.8-7 8.2-10.4 13-5.8.5-11.3 1.4-16.5 2.5-.6-2.3-1-4.5-1.4-6.6ZM7 64c0-4.7 5.7-9.7 15.7-13.4 2-.8 4.2-1.5 6.4-2.1 1.6 5 3.6 10.3 6 15.6-2.4 5.3-4.5 10.5-6 15.5C15.3 75.6 7 69.6 7 64Zm28.5 49.3c-4.1-2.4-5.5-9.8-3.8-20.3.3-2.1.8-4.3 1.4-6.6 5.2 1.2 10.7 2 16.5 2.5 3.4 4.8 6.9 9.1 10.4 13-7.4 7.3-14.9 12.3-21 12.3-1.3 0-2.5-.3-3.5-.9ZM96.3 93c1.7 10.5.3 17.9-3.8 20.3-1 .6-2.2.9-3.5.9-6 0-13.5-4.9-21-12.3 3.5-3.8 7-8.2 10.4-13 5.8-.5 11.3-1.4 16.5-2.5.6 2.3 1 4.5 1.4 6.6Zm9-15.6c-2 .8-4.2 1.5-6.4 2.1-1.6-5-3.6-10.3-6-15.6 2.4-5.3 4.5-10.5 6-15.5 13.8 4 22.1 10 22.1 15.6 0 4.7-5.8 9.7-15.7 13.4Z"/></symbol><symbol viewBox="0 0 127 111" id="sass-color" xmlns="http://www.w3.org/2000/svg"><path fill-rule="evenodd" clip-rule="evenodd" d="M1.22 56.156c0 .703.206 1.167.322 1.618.756 2.933 2.381 5.45 4.31 7.746 2.745 3.272 6.108 5.906 9.553 8.383 2.988 2.148 6.037 4.248 9.037 6.38.515.366 1.002.787 1.561 1.236-.48.26-.88.489-1.297.7-3.959 2.008-7.768 4.259-11.279 6.986-2.116 1.644-4.162 3.391-5.607 5.674-2.325 3.672-3.148 7.584-1.415 11.761.506 1.22 1.278 2.274 2.367 3.053.353.252.75.502 1.162.6 1.058.249 2.136.412 3.207.609l3.033-.002c3.354-.299 6.407-1.448 9.166-3.352 4.312-2.976 7.217-6.966 8.466-12.087.908-3.722.945-7.448-.125-11.153a11.37 11.37 0 0 0-.354-1.014c-.13-.333-.283-.657-.463-1.072l6.876-3.954.103.088c-.125.409-.258.817-.37 1.23-.818 2.984-1.36 6.02-1.166 9.117.208 3.3 1.13 6.389 3.061 9.146 1.562 2.23 5.284 2.313 6.944.075.59-.795 1.16-1.626 1.59-2.513 1.12-2.315 2.158-4.671 3.23-7.011l.186-.428c-.077 1.108-.167 2.081-.208 3.055-.064 1.521.025 3.033.545 4.48.445 1.238 1.202 2.163 2.62 2.326.97.111 1.743-.333 2.456-.896a10.383 10.383 0 0 0 2.691-3.199c1.901-3.491 3.853-6.961 5.576-10.54 1.864-3.871 3.494-7.855 5.225-11.792l.286-.698c.41 1.607.694 3.181 1.22 4.671.61 1.729 1.364 3.417 2.186 5.058.39.775.344 1.278-.195 1.928-2.256 2.72-4.473 5.473-6.692 8.223-.49.607-.98 1.225-1.389 1.888a3.702 3.702 0 0 0-.48 1.364 1.737 1.737 0 0 0 1.383 1.971c.89.191 1.801.256 2.708.193 3.097-.228 5.91-1.315 8.395-3.157 3.221-2.386 4.255-5.642 3.475-9.501-.21-1.047-.584-2.065-.947-3.074-.163-.455-.174-.774.123-1.198 2.575-3.677 4.775-7.578 6.821-11.569.081-.157.164-.314.306-.482.663 3.45 1.661 6.775 3.45 9.792-.913.879-1.816 1.676-2.633 2.554-1.799 1.934-3.359 4.034-4.173 6.595-.35 1.104-.619 2.226-.463 3.405.242 1.831 1.742 3.021 3.543 2.604 3.854-.892 7.181-2.708 9.612-5.925 1.636-2.166 1.785-4.582 1.1-7.113-.188-.688-.41-1.365-.65-2.154.95-.295 1.877-.649 2.836-.868 4.979-1.136 9.904-.938 14.702.86 2.801 1.05 5.064 2.807 6.406 5.571 1.639 3.379.733 6.585-2.452 8.721-.297.199-.637.356-.883.605a.877.877 0 0 0-.205.67c.021.123.346.277.533.275 1.047-.008 1.896-.557 2.711-1.121 2.042-1.413 3.532-3.314 3.853-5.817l.063-.188-.077-1.63c-.031-.094.023-.187.016-.258-.434-3.645-2.381-6.472-5.213-8.688-3.28-2.565-7.153-3.621-11.249-3.788a25.4 25.4 0 0 0-9.765 1.503c-.897.325-1.786.71-2.688 1.073-.12-.219-.25-.429-.358-.646-.926-1.896-2.048-3.708-2.296-5.882-.176-1.544-.392-3.086-.025-4.613.353-1.469.813-2.913 1.246-4.362.223-.746.066-1.164-.646-1.5a2.854 2.854 0 0 0-.786-.258c-1.75-.254-3.476-.109-5.17.384-.6.175-1.037.511-1.17 1.175-.076.381-.23.746-.339 1.122-.443 1.563-.757 3.156-1.473 4.645-1.794 3.735-3.842 7.329-5.938 10.897-.227.385-.466.763-.752 1.23-.736-1.54-1.52-2.922-1.759-4.542-.269-1.832-.48-3.661-.025-5.479.34-1.356.782-2.687 1.19-4.025.193-.636.104-.97-.472-1.305-.29-.169-.62-.319-.948-.368a11.644 11.644 0 0 0-5.354.438c-.543.176-.828.527-.994 1.087-.488 1.652-.904 3.344-1.589 4.915-2.774 6.36-5.628 12.687-8.479 19.013-.595 1.321-1.292 2.596-1.963 3.882-.17.326-.418.613-.63.919-.17-.201-.236-.339-.235-.477.005-.813-.092-1.65.063-2.436a172.28 172.28 0 0 1 1.578-7.099c.47-1.946 1.017-3.874 1.538-5.807.175-.647.178-1.252-.287-1.796-.78-.911-2.413-1.111-3.38-.409l-.429.242.083-.69c.204-1.479.245-2.953-.16-4.41-.507-1.816-1.803-2.861-3.687-2.803-.878.027-1.8.177-2.613.497-3.419 1.34-6.048 3.713-8.286 6.568a2.591 2.591 0 0 1-.757.654C39.602 74.066 36.7 75.65 33.8 77.24l-3.229 1.769c-.866-.826-1.653-1.683-2.546-2.41-2.727-2.224-5.498-4.393-8.244-6.592-2.434-1.949-4.792-3.979-6.596-6.56-1.342-1.92-2.207-4.021-2.29-6.395-.105-3.025.753-5.789 2.293-8.362 1.97-3.292 4.657-5.934 7.611-8.327 3.125-2.53 6.505-4.678 10.008-6.639 4.901-2.743 9.942-5.171 15.347-6.774 5.542-1.644 11.165-2.585 16.965-1.929 2.28.258 4.494.78 6.527 1.895 1.557.853 2.834 1.97 3.428 3.716.586 1.718.568 3.459.162 5.204-.825 3.534-2.76 6.447-5.195 9.05-3.994 4.267-8.866 7.172-14.35 9.091a39.48 39.48 0 0 1-9.766 2.083c-2.729.229-5.4-.013-7.985-.962-1.71-.629-3.2-1.591-4.399-2.987-.214-.25-.488-.521-.887-.287-.39.23-.46.602-.329.979.22.626.421 1.278.762 1.838.857 1.405 2.107 2.424 3.483 3.298 2.643 1.681 5.597 2.246 8.66 2.377 4.648.201 9.183-.493 13.654-1.74 6.383-1.78 11.933-4.924 16.384-9.884 3.706-4.13 6.353-8.791 6.92-14.419.277-2.747-.018-5.438-1.304-7.944-1.395-2.715-3.613-4.734-6.265-6.125C68.756 18.179 64.588 17 60.286 17h-4.31c-5.21 0-10.247 1.493-15.143 3.274-3.706 1.349-7.34 2.941-10.868 4.703-7.683 3.839-14.838 8.468-20.715 14.833-2.928 3.171-5.407 6.67-6.833 10.79-.43 1.23-.8 2.48-1.11 3.746m27.838 36.013c-.333 4.459-2.354 8.074-5.657 11.002-1.858 1.646-3.989 2.818-6.47 3.23-.9.149-1.822.185-2.695-.188-1.245-.532-1.524-1.637-1.548-2.814-.037-1.876.62-3.572 1.521-5.186 1.176-2.104 2.9-3.708 4.741-5.206 2.9-2.361 6.046-4.359 9.268-6.245l.243-.1c.498 1.84.735 3.657.597 5.507ZM54.303 70.98c-.235 1.424-.529 2.849-.945 4.229-1.438 4.777-3.285 9.406-5.282 13.973-.369.845-.906 1.616-1.373 2.417-.08.123-.174.235-.283.334-.578.571-1.126.541-1.418-.206-.34-.868-.549-1.797-.729-2.716-.12-.617-.092-1.265-.13-1.897.04-4.494 1.41-8.578 3.736-12.38.96-1.568 2.003-3.062 3.598-4.054a6.272 6.272 0 0 1 1.595-.706c.85-.239 1.372.154 1.231 1.006Zm17.164 21.868 6.17-7.203c.256 2.675-4.29 8.015-6.17 7.203Zm19.703-4.847c-.436.25-.91.43-1.358.661-.409.212-.544-.002-.556-.354a2.388 2.388 0 0 1 .093-.721c.833-2.938 2.366-5.446 4.647-7.486l.16-.082c1.085 3.035-.169 6.368-2.986 7.982Z"/></symbol><symbol viewBox="0 0 24 24" id="sun" xmlns="http://www.w3.org/2000/svg"><g clip-path="url(#ta)"><path d="M12 4.8a1.148 1.148 0 0 1-1.148-1.148V1.148a1.148 1.148 0 1 1 2.296 0v2.504A1.148 1.148 0 0 1 12 4.8ZM12 24a1.148 1.148 0 0 1-1.148-1.148v-2.504a1.148 1.148 0 1 1 2.296 0v2.504A1.148 1.148 0 0 1 12 24Zm5.903-16.755a1.148 1.148 0 0 1-.812-1.96l1.77-1.77a1.148 1.148 0 0 1 1.624 1.623l-1.77 1.77a1.144 1.144 0 0 1-.812.337ZM4.326 20.822a1.148 1.148 0 0 1-.811-1.96l1.77-1.77a1.148 1.148 0 1 1 1.624 1.622l-1.77 1.771a1.143 1.143 0 0 1-.813.337Zm18.526-7.674h-2.504a1.148 1.148 0 1 1 0-2.296h2.504a1.148 1.148 0 1 1 0 2.296Zm-19.2 0H1.148a1.148 1.148 0 1 1 0-2.296h2.504a1.148 1.148 0 1 1 0 2.296Zm16.022 7.674a1.145 1.145 0 0 1-.812-.337l-1.77-1.77a1.148 1.148 0 0 1 1.622-1.624l1.771 1.77a1.147 1.147 0 0 1-.811 1.96ZM6.097 7.245a1.142 1.142 0 0 1-.811-.336l-1.771-1.77a1.148 1.148 0 0 1 1.623-1.624l1.77 1.77a1.148 1.148 0 0 1-.811 1.96ZM12 17.322A5.322 5.322 0 1 1 17.322 12 5.328 5.328 0 0 1 12 17.322Z"/></g><defs><clipPath id="ta"><path d="M0 0h24v24H0z"/></clipPath></defs></symbol></svg>