<svg aria-hidden="true" style="position:absolute;width:0;height:0" width="24" height="24" xmlns="http://www.w3.org/2000/svg" overflow="hidden"><defs><symbol id="git-branch" viewBox="0 0 24 24"><path fill-rule="evenodd" clip-rule="evenodd" d="M7.5 3a1.5 1.5 0 1 0 0 3 1.5 1.5 0 0 0 0-3Zm-3 1.5a3 3 0 1 1 6 0 3 3 0 0 1-6 0ZM7.5 18a1.5 1.5 0 1 0 0 3 1.5 1.5 0 0 0 0-3Zm-3 1.5a3 3 0 1 1 6 0 3 3 0 0 1-6 0Z"/><path fill-rule="evenodd" clip-rule="evenodd" d="M7.5 6a.75.75 0 0 1 .75.75v10.5a.75.75 0 0 1-1.5 0V6.75A.75.75 0 0 1 7.5 6ZM16.5 6a1.5 1.5 0 1 0 0 3 1.5 1.5 0 0 0 0-3Zm-3 1.5a3 3 0 1 1 6 0 3 3 0 0 1-6 0Z"/><path fill-rule="evenodd" clip-rule="evenodd" d="M16.5 9a.75.75 0 0 1 .75.75c0 1.732-.672 2.862-1.734 3.585-.987.671-2.262.951-3.363 1.18l-.178.037c-1.097.228-2.018.42-2.698.807-.336.192-.581.416-.747.692-.164.276-.28.653-.28 1.199a.75.75 0 0 1-1.5 0c0-.767.165-1.42.493-1.968.327-.547.785-.938 1.292-1.227.896-.51 2.045-.747 3.06-.956l.252-.052c1.15-.24 2.124-.475 2.825-.952.625-.426 1.078-1.077 1.078-2.345A.75.75 0 0 1 16.5 9Z"/></symbol></defs></svg>