<svg aria-hidden="true" style="position:absolute;width:0;height:0" width="24" height="24" xmlns="http://www.w3.org/2000/svg" overflow="hidden"><defs><symbol id="git-branch" viewBox="0 0 24 24"><path fill-rule="evenodd" clip-rule="evenodd" d="M7.5 3C6.67157 3 6 3.67157 6 4.5C6 5.32843 6.67157 6 7.5 6C8.32843 6 9 5.32843 9 4.5C9 3.67157 8.32843 3 7.5 3ZM4.5 4.5C4.5 2.84315 5.84315 1.5 7.5 1.5C9.15685 1.5 10.5 2.84315 10.5 4.5C10.5 6.15685 9.15685 7.5 7.5 7.5C5.84315 7.5 4.5 6.15685 4.5 4.5Z" /><path fill-rule="evenodd" clip-rule="evenodd" d="M7.5 18C6.67157 18 6 18.6716 6 19.5C6 20.3284 6.67157 21 7.5 21C8.32843 21 9 20.3284 9 19.5C9 18.6716 8.32843 18 7.5 18ZM4.5 19.5C4.5 17.8431 5.84315 16.5 7.5 16.5C9.15685 16.5 10.5 17.8431 10.5 19.5C10.5 21.1569 9.15685 22.5 7.5 22.5C5.84315 22.5 4.5 21.1569 4.5 19.5Z" /><path fill-rule="evenodd" clip-rule="evenodd" d="M7.5 6C7.91421 6 8.25 6.33579 8.25 6.75V17.25C8.25 17.6642 7.91421 18 7.5 18C7.08579 18 6.75 17.6642 6.75 17.25V6.75C6.75 6.33579 7.08579 6 7.5 6Z" /><path fill-rule="evenodd" clip-rule="evenodd" d="M16.5 6C15.6716 6 15 6.67157 15 7.5C15 8.32843 15.6716 9 16.5 9C17.3284 9 18 8.32843 18 7.5C18 6.67157 17.3284 6 16.5 6ZM13.5 7.5C13.5 5.84315 14.8431 4.5 16.5 4.5C18.1569 4.5 19.5 5.84315 19.5 7.5C19.5 9.15685 18.1569 10.5 16.5 10.5C14.8431 10.5 13.5 9.15685 13.5 7.5Z" /><path fill-rule="evenodd" clip-rule="evenodd" d="M16.5 9C16.9142 9 17.25 9.33579 17.25 9.75C17.25 11.4816 16.5781 12.6119 15.5157 13.3349C14.5288 14.0065 13.2535 14.2862 12.153 14.5155C12.0932 14.5279 12.0339 14.5403 11.9751 14.5525C10.8776 14.7804 9.95737 14.9715 9.27738 15.3588C8.94056 15.5506 8.69575 15.7749 8.53044 16.0514C8.36578 16.3268 8.25 16.7041 8.25 17.25C8.25 17.6642 7.91421 18 7.5 18C7.08579 18 6.75 17.6642 6.75 17.25C6.75 16.4834 6.91547 15.8295 7.24299 15.2816C7.56987 14.7349 8.02819 14.344 8.53512 14.0553C9.43136 13.5449 10.5796 13.3083 11.5955 13.099C11.6803 13.0815 11.7643 13.0643 11.847 13.047C12.9965 12.8075 13.9712 12.5716 14.6718 12.0948C15.2969 11.6694 15.75 11.0184 15.75 9.75C15.75 9.33579 16.0858 9 16.5 9Z" /></symbol><symbol id="sun" viewBox="0 0 24 24"><g clip-path="url(#clip0_8_16)"><path d="M12 16.5C10.8065 16.5 9.66193 16.0259 8.81802 15.182C7.97411 14.3381 7.5 13.1935 7.5 12C7.5 10.8065 7.97411 9.66193 8.81802 8.81802C9.66193 7.97411 10.8065 7.5 12 7.5C13.1935 7.5 14.3381 7.97411 15.182 8.81802C16.0259 9.66193 16.5 10.8065 16.5 12C16.5 13.1935 16.0259 14.3381 15.182 15.182C14.3381 16.0259 13.1935 16.5 12 16.5ZM12 18C13.5913 18 15.1174 17.3679 16.2426 16.2426C17.3679 15.1174 18 13.5913 18 12C18 10.4087 17.3679 8.88258 16.2426 7.75736C15.1174 6.63214 13.5913 6 12 6C10.4087 6 8.88258 6.63214 7.75736 7.75736C6.63214 8.88258 6 10.4087 6 12C6 13.5913 6.63214 15.1174 7.75736 16.2426C8.88258 17.3679 10.4087 18 12 18ZM12 0C12.1989 0 12.3897 0.0790176 12.5303 0.21967C12.671 0.360322 12.75 0.551088 12.75 0.75V3.75C12.75 3.94891 12.671 4.13968 12.5303 4.28033C12.3897 4.42098 12.1989 4.5 12 4.5C11.8011 4.5 11.6103 4.42098 11.4697 4.28033C11.329 4.13968 11.25 3.94891 11.25 3.75V0.75C11.25 0.551088 11.329 0.360322 11.4697 0.21967C11.6103 0.0790176 11.8011 0 12 0ZM12 19.5C12.1989 19.5 12.3897 19.579 12.5303 19.7197C12.671 19.8603 12.75 20.0511 12.75 20.25V23.25C12.75 23.4489 12.671 23.6397 12.5303 23.7803C12.3897 23.921 12.1989 24 12 24C11.8011 24 11.6103 23.921 11.4697 23.7803C11.329 23.6397 11.25 23.4489 11.25 23.25V20.25C11.25 20.0511 11.329 19.8603 11.4697 19.7197C11.6103 19.579 11.8011 19.5 12 19.5ZM24 12C24 12.1989 23.921 12.3897 23.7803 12.5303C23.6397 12.671 23.4489 12.75 23.25 12.75H20.25C20.0511 12.75 19.8603 12.671 19.7197 12.5303C19.579 12.3897 19.5 12.1989 19.5 12C19.5 11.8011 19.579 11.6103 19.7197 11.4697C19.8603 11.329 20.0511 11.25 20.25 11.25H23.25C23.4489 11.25 23.6397 11.329 23.7803 11.4697C23.921 11.6103 24 11.8011 24 12ZM4.5 12C4.5 12.1989 4.42098 12.3897 4.28033 12.5303C4.13968 12.671 3.94891 12.75 3.75 12.75H0.75C0.551088 12.75 0.360322 12.671 0.21967 12.5303C0.0790176 12.3897 0 12.1989 0 12C0 11.8011 0.0790176 11.6103 0.21967 11.4697C0.360322 11.329 0.551088 11.25 0.75 11.25H3.75C3.94891 11.25 4.13968 11.329 4.28033 11.4697C4.42098 11.6103 4.5 11.8011 4.5 12ZM20.4855 3.5145C20.6261 3.65515 20.7051 3.84588 20.7051 4.04475C20.7051 4.24362 20.6261 4.43435 20.4855 4.575L18.3645 6.6975C18.2948 6.76713 18.212 6.82235 18.1209 6.86C18.0299 6.89765 17.9323 6.91699 17.8337 6.91692C17.6347 6.91678 17.4439 6.83758 17.3032 6.69675C17.2336 6.62702 17.1784 6.54425 17.1408 6.45318C17.1031 6.36211 17.0838 6.26452 17.0838 6.16597C17.084 5.96695 17.1632 5.77613 17.304 5.6355L19.425 3.5145C19.5656 3.3739 19.7564 3.29491 19.9553 3.29491C20.1541 3.29491 20.3449 3.3739 20.4855 3.5145ZM6.696 17.304C6.8366 17.4446 6.91559 17.6354 6.91559 17.8342C6.91559 18.0331 6.8366 18.2239 6.696 18.3645L4.575 20.4855C4.43355 20.6221 4.2441 20.6977 4.04745 20.696C3.8508 20.6943 3.66269 20.6154 3.52364 20.4764C3.38458 20.3373 3.3057 20.1492 3.30399 19.9526C3.30229 19.7559 3.37788 19.5665 3.5145 19.425L5.6355 17.304C5.77615 17.1634 5.96688 17.0844 6.16575 17.0844C6.36462 17.0844 6.55535 17.1634 6.696 17.304ZM20.4855 20.4855C20.3449 20.6261 20.1541 20.7051 19.9553 20.7051C19.7564 20.7051 19.5656 20.6261 19.425 20.4855L17.304 18.3645C17.1674 18.223 17.0918 18.0336 17.0935 17.8369C17.0952 17.6403 17.1741 17.4522 17.3131 17.3131C17.4522 17.1741 17.6403 17.0952 17.8369 17.0935C18.0336 17.0918 18.223 17.1674 18.3645 17.304L20.4855 19.425C20.6261 19.5656 20.7051 19.7564 20.7051 19.9553C20.7051 20.1541 20.6261 20.3449 20.4855 20.4855ZM6.696 6.6975C6.55535 6.8381 6.36462 6.91709 6.16575 6.91709C5.96688 6.91709 5.77615 6.8381 5.6355 6.6975L3.5145 4.575C3.44287 4.50581 3.38573 4.42306 3.34642 4.33155C3.30712 4.24005 3.28643 4.14164 3.28556 4.04205C3.2847 3.94247 3.30367 3.84371 3.34138 3.75153C3.37909 3.65936 3.43478 3.57562 3.5052 3.5052C3.57562 3.43478 3.65936 3.37909 3.75153 3.34138C3.84371 3.30367 3.94247 3.2847 4.04205 3.28556C4.14164 3.28643 4.24005 3.30712 4.33155 3.34642C4.42306 3.38573 4.50581 3.44287 4.575 3.5145L6.696 5.6355C6.76585 5.70517 6.82126 5.78793 6.85907 5.87905C6.89688 5.97017 6.91634 6.06785 6.91634 6.1665C6.91634 6.26515 6.89688 6.36283 6.85907 6.45395C6.82126 6.54507 6.76585 6.62783 6.696 6.6975Z" /></g><defs><clipPath id="clip0_8_16"><rect width="24" height="24" /></clipPath></defs></symbol><symbol id="menu" viewBox="0 0 24 24"><path d="M2 6.00002C2 5.7348 2.10536 5.48045 2.29289 5.29291C2.48043 5.10537 2.73478 5.00002 3 5.00002H21C21.2652 5.00002 21.5196 5.10537 21.7071 5.29291C21.8946 5.48045 22 5.7348 22 6.00002C22 6.26523 21.8946 6.51959 21.7071 6.70712C21.5196 6.89466 21.2652 7.00002 21 7.00002H3C2.73478 7.00002 2.48043 6.89466 2.29289 6.70712C2.10536 6.51959 2 6.26523 2 6.00002Z" /><path d="M2 12.032C2 11.7668 2.10536 11.5124 2.29289 11.3249C2.48043 11.1374 2.73478 11.032 3 11.032H21C21.2652 11.032 21.5196 11.1374 21.7071 11.3249C21.8946 11.5124 22 11.7668 22 12.032C22 12.2972 21.8946 12.5516 21.7071 12.7391C21.5196 12.9267 21.2652 13.032 21 13.032H3C2.73478 13.032 2.48043 12.9267 2.29289 12.7391C2.10536 12.5516 2 12.2972 2 12.032Z" /><path d="M3 17.064C2.73478 17.064 2.48043 17.1694 2.29289 17.3569C2.10536 17.5444 2 17.7988 2 18.064C2 18.3292 2.10536 18.5836 2.29289 18.7711C2.48043 18.9587 2.73478 19.064 3 19.064H21C21.2652 19.064 21.5196 18.9587 21.7071 18.7711C21.8946 18.5836 22 18.3292 22 18.064C22 17.7988 21.8946 17.5444 21.7071 17.3569C21.5196 17.1694 21.2652 17.064 21 17.064H3Z" /></symbol></defs></svg>