<?xml version="1.0" encoding="utf-8"?><svg xmlns="http://www.w3.org/2000/svg" xmlns:xlink="http://www.w3.org/1999/xlink"><symbol viewBox="0 0 16 16" id="code-square" xmlns="http://www.w3.org/2000/svg"><g clip-path="url(#aa)"><path d="M14 1a1 1 0 0 1 1 1v12a1 1 0 0 1-1 1H2a1 1 0 0 1-1-1V2a1 1 0 0 1 1-1h12ZM2 0a2 2 0 0 0-2 2v12a2 2 0 0 0 2 2h12a2 2 0 0 0 2-2V2a2 2 0 0 0-2-2H2Z"/><path d="M6.854 4.646a.5.5 0 0 1 0 .708L4.207 8l2.647 2.646a.5.5 0 1 1-.708.708l-3-3a.5.5 0 0 1 0-.708l3-3a.5.5 0 0 1 .708 0Zm2.292 0a.5.5 0 0 0 0 .708L11.793 8l-2.647 2.646a.5.5 0 1 0 .708.708l3-3a.5.5 0 0 0 0-.708l-3-3a.5.5 0 0 0-.708 0Z"/></g><defs><clipPath id="aa"><path d="M0 0h16v16H0z"/></clipPath></defs></symbol><symbol viewBox="0 0 24 24" id="codepen" xmlns="http://www.w3.org/2000/svg"><g clip-path="url(#ca)"><path d="M23.992 8.254c-.002-.015-.006-.029-.009-.044a.986.986 0 0 0-.018-.085c-.004-.017-.01-.033-.016-.05a1.03 1.03 0 0 0-.026-.074l-.023-.05a.78.78 0 0 0-.035-.067l-.03-.047a.922.922 0 0 0-.13-.161 1.187 1.187 0 0 0-.1-.089l-.046-.035c-.006-.004-.011-.009-.017-.012L12.572.315a1.04 1.04 0 0 0-1.143 0L.458 7.54l-.017.012a.992.992 0 0 0-.105.084c-.014.012-.027.026-.04.04a.887.887 0 0 0-.131.16.887.887 0 0 0-.065.115l-.023.05c-.01.025-.018.05-.026.074-.006.017-.012.033-.016.05a.801.801 0 0 0-.018.085l-.009.044A.97.97 0 0 0 0 8.387v7.225c0 .045.003.09.01.134.001.014.005.03.008.043a.77.77 0 0 0 .018.086c.004.017.01.033.016.05.008.024.016.05.026.074l.023.05a1.193 1.193 0 0 0 .065.114.911.911 0 0 0 .13.161l.041.04a.918.918 0 0 0 .105.084c.006.003.012.008.017.012l10.97 7.225a1.04 1.04 0 0 0 1.144 0l10.969-7.225c.006-.004.01-.009.017-.012a1.232 1.232 0 0 0 .105-.084l.041-.04a.99.99 0 0 0 .13-.16l.03-.048a.93.93 0 0 0 .035-.068l.023-.049c.01-.025.018-.05.026-.075.006-.016.012-.032.016-.049a.99.99 0 0 0 .018-.085l.009-.044a.995.995 0 0 0 .01-.134V8.387a1.208 1.208 0 0 0-.01-.133Zm-10.96-5.188 8.08 5.323-3.609 2.385-4.471-2.955V3.066Zm-2.063 0V7.82L6.5 10.774 2.888 8.39l8.08-5.323Zm-8.906 7.229L4.643 12l-2.58 1.705v-3.41Zm8.906 10.638-8.08-5.322 3.61-2.385 4.47 2.955v4.752Zm1.032-6.522L8.353 12 12 9.59 15.648 12l-3.647 2.41Zm1.031 6.522v-4.752l4.471-2.955 3.61 2.385-8.081 5.322Zm8.906-7.228L19.358 12l2.58-1.705v3.41Z"/></g><defs><clipPath id="ca"><path d="M0 0h24v24H0z"/></clipPath></defs></symbol><symbol viewBox="0 0 24 24" id="codepen-circle" xmlns="http://www.w3.org/2000/svg"><g clip-path="url(#ba)"><path d="M18.144 13.067v-2.134L16.55 12l1.594 1.067Zm1.276 1.194a.64.64 0 0 1-.006.083l-.005.028-.011.053-.01.031a.454.454 0 0 1-.017.047l-.014.03a.854.854 0 0 1-.021.043l-.019.03a.571.571 0 0 1-.08.1l-.026.025a.572.572 0 0 1-.036.03l-.029.022-.01.008-6.782 4.522a.637.637 0 0 1-.708 0L4.864 14.79l-.01-.008a.6.6 0 0 1-.065-.052l-.026-.025-.032-.034-.021-.028a.589.589 0 0 1-.067-.11l-.014-.031a.637.637 0 0 1-.017-.047l-.01-.03a.512.512 0 0 1-.01-.054l-.006-.028a.628.628 0 0 1-.006-.083V9.739a.58.58 0 0 1 .006-.083l.005-.027.011-.054.01-.03a.574.574 0 0 1 .12-.217l.031-.034.026-.025a.62.62 0 0 1 .065-.052l.01-.008 6.782-4.521a.638.638 0 0 1 .708 0l6.782 4.521.01.008.03.022.035.03c.01.008.017.016.026.025.03.03.057.064.08.1l.019.03a.675.675 0 0 1 .021.043l.014.03c.007.016.012.032.017.047l.01.031a.512.512 0 0 1 .01.054l.006.027a.607.607 0 0 1 .006.083v4.522ZM12 0C5.373 0 0 5.372 0 12c0 6.627 5.373 12 12 12 6.628 0 12-5.372 12-12 0-6.627-5.372-12-12-12Zm0 10.492L9.745 12 12 13.51 14.255 12 12 10.492Zm.638 4.124v2.975l4.996-3.33-2.232-1.493-2.764 1.848Zm-6.272-.356 4.996 3.33v-2.974l-2.764-1.849-2.232 1.493Zm11.268-4.52-4.996-3.33v2.974l2.764 1.85 2.232-1.494Zm-6.272-.356V6.41L6.366 9.74l2.232 1.493 2.764-1.849Zm-5.506 1.549v2.134L7.45 12l-1.594-1.067Z"/></g><defs><clipPath id="ba"><path d="M0 0h24v24H0z"/></clipPath></defs></symbol><symbol viewBox="0 0 16 16" id="design-square" xmlns="http://www.w3.org/2000/svg"><g clip-path="url(#da)"><path d="M14 1a1 1 0 0 1 1 1v12a1 1 0 0 1-1 1H2a1 1 0 0 1-1-1V2a1 1 0 0 1 1-1h12ZM2 0a2 2 0 0 0-2 2v12a2 2 0 0 0 2 2h12a2 2 0 0 0 2-2V2a2 2 0 0 0-2-2H2Z"/><path d="M10.93 6.353c.161.28.459.47.803.47a.93.93 0 0 0 .66-.275.945.945 0 0 0 0-1.331.928.928 0 0 0-1.464.195H9.867V4.47A.473.473 0 0 0 9.4 4H6.6a.473.473 0 0 0-.467.47v.942H5.071a.928.928 0 0 0-.804-.47.93.93 0 0 0-.66.275.945.945 0 0 0 0 1.33.93.93 0 0 0 .66.277c.344 0 .642-.19.804-.471h1.062v.174c-1.338.692-1.718 1.96-1.824 2.65H3.8a.473.473 0 0 0-.467.47v1.882c0 .125.05.245.137.333A.465.465 0 0 0 3.8 12h1.867a.465.465 0 0 0 .466-.47V9.646a.473.473 0 0 0-.466-.47h-.41c.092-.452.335-1.133.973-1.609a.46.46 0 0 0 .37.197h2.8a.454.454 0 0 0 .37-.197c.64.476.884 1.156.975 1.608h-.412a.472.472 0 0 0-.467.47v1.883a.473.473 0 0 0 .467.471H12.2a.465.465 0 0 0 .467-.47V9.646a.473.473 0 0 0-.467-.47h-.51c-.105-.69-.486-1.959-1.823-2.65v-.174h1.062ZM5.2 11.059h-.933v-.941H5.2v.94Zm6.533 0H10.8v-.941h.933v.94Zm-2.8-4.235H7.067V4.94h1.866v1.883Z"/></g><defs><clipPath id="da"><path d="M0 0h16v16H0z"/></clipPath></defs></symbol><symbol viewBox="0 0 24 21" id="email" xmlns="http://www.w3.org/2000/svg"><path d="M22.5 3h-21A1.5 1.5 0 0 0 0 4.5v15A1.5 1.5 0 0 0 1.5 21h21a1.5 1.5 0 0 0 1.5-1.5v-15A1.5 1.5 0 0 0 22.5 3Zm-1.155 16.5h-18.6l5.25-5.43-1.08-1.043L1.5 18.63V5.64l9.322 9.277a1.5 1.5 0 0 0 2.116 0l9.562-9.51v13.125l-5.52-5.52-1.058 1.058 5.423 5.43ZM2.483 4.5h18.802l-9.405 9.352L2.482 4.5Z"/></symbol><symbol viewBox="0 0 18 24" id="facebook" xmlns="http://www.w3.org/2000/svg"><path d="M13.796 24V13.07h3.554l.528-4.28h-4.082V6.066c0-1.235.331-2.08 2.04-2.08H18V.17A27.683 27.683 0 0 0 14.829 0c-3.141 0-5.298 1.99-5.298 5.642v3.14H6v4.28h3.539V24h4.257Z"/></symbol><symbol viewBox="0 0 24 24" id="facebook-circle" xmlns="http://www.w3.org/2000/svg"><g clip-path="url(#fa)"><path d="M24 12.073C24 5.404 18.627 0 12 0 5.37 0-.003 5.405-.003 12.075c0 6.026 4.389 11.02 10.125 11.927v-8.438H7.077v-3.489h3.048V9.413c0-3.026 1.793-4.697 4.533-4.697 1.314 0 2.687.236 2.687.236v2.97H15.83c-1.49 0-1.954.931-1.954 1.887v2.264h3.326l-.53 3.49h-2.798V24C19.611 23.094 24 18.099 24 12.073Z"/></g><defs><clipPath id="fa"><path d="M0 0h24v24H0z"/></clipPath></defs></symbol><symbol viewBox="0 0 21 24" id="git-branch" xmlns="http://www.w3.org/2000/svg"><path fill-rule="evenodd" clip-rule="evenodd" d="M6.6 1.714c-.994 0-1.8.768-1.8 1.715 0 .946.806 1.714 1.8 1.714s1.8-.768 1.8-1.714c0-.947-.806-1.715-1.8-1.715ZM3 3.43C3 1.535 4.612 0 6.6 0s3.6 1.535 3.6 3.429c0 1.893-1.612 3.428-3.6 3.428S3 5.322 3 3.43Zm3.6 15.427c-.994 0-1.8.768-1.8 1.714 0 .947.806 1.715 1.8 1.715s1.8-.768 1.8-1.715c0-.946-.806-1.714-1.8-1.714ZM3 20.571c0-1.893 1.612-3.428 3.6-3.428s3.6 1.535 3.6 3.428C10.2 22.465 8.588 24 6.6 24S3 22.465 3 20.571Z"/><path fill-rule="evenodd" clip-rule="evenodd" d="M6.6 5.143c.497 0 .9.384.9.857v12c0 .473-.403.857-.9.857s-.9-.384-.9-.857V6c0-.473.403-.857.9-.857Zm10.8 0c-.994 0-1.8.767-1.8 1.714s.806 1.714 1.8 1.714 1.8-.767 1.8-1.714-.806-1.714-1.8-1.714Zm-3.6 1.714c0-1.893 1.612-3.428 3.6-3.428S21 4.964 21 6.857c0 1.894-1.612 3.429-3.6 3.429s-3.6-1.535-3.6-3.429Z"/><path fill-rule="evenodd" clip-rule="evenodd" d="M17.4 8.571c.497 0 .9.384.9.858 0 1.979-.806 3.27-2.081 4.097-1.184.767-2.715 1.087-4.035 1.349l-.214.042c-1.317.26-2.421.48-3.237.922-.404.219-.698.475-.896.791-.198.315-.337.746-.337 1.37 0 .473-.403.857-.9.857s-.9-.384-.9-.857c0-.876.199-1.623.592-2.25.392-.624.942-1.071 1.55-1.401 1.076-.583 2.454-.854 3.673-1.093l.301-.06c1.38-.273 2.55-.543 3.39-1.088.75-.486 1.294-1.23 1.294-2.68 0-.473.403-.857.9-.857Z"/></symbol><symbol viewBox="0 0 24 24" id="github" xmlns="http://www.w3.org/2000/svg"><g clip-path="url(#ja)"><path d="M24 8.389C24 9.796 23.781 11 23.344 12c-.438 1-1.073 1.768-1.907 2.306-.833.537-1.666.926-2.5 1.166-.833.241-1.812.417-2.937.528.792.593 1.188 1.537 1.188 2.833v5H8.5v-3.61c-.667.11-1.281.166-1.844.166-.562 0-1.041-.046-1.437-.139a5.295 5.295 0 0 1-1.063-.361 3.181 3.181 0 0 1-.75-.472 4.698 4.698 0 0 1-.469-.473 1.41 1.41 0 0 1-.25-.388l-.062-.167a6.297 6.297 0 0 0-.844-1.333c-.312-.37-.573-.612-.781-.723l-.313-.166C.23 15.833 0 15.602 0 15.472s.146-.213.438-.25h.374c.5.037.98.185 1.438.445.458.259.77.518.938.777l.312.334c1.125 1.74 2.813 2.166 5.063 1.278.124-.89.5-1.575 1.124-2.056-1.124-.111-2.104-.287-2.937-.528a9.023 9.023 0 0 1-2.469-1.166C3.47 13.769 2.833 13 2.375 12c-.458-1-.688-2.204-.688-3.611 0-1.593.605-2.963 1.813-4.111-.542-1.222-.48-2.593.188-4.111.124.037.291.027.5-.028.208-.056.729.055 1.562.333.833.278 1.75.713 2.75 1.306a20.635 20.635 0 0 1 4.375-.556c1.5.037 2.958.222 4.375.556.958-.593 1.844-1.019 2.656-1.278.813-.26 1.365-.389 1.657-.389L22 .167c.708 1.518.77 2.889.188 4.11C23.395 5.427 24 6.798 24 8.39ZM2 15.917c.042-.093-.01-.167-.156-.223-.146-.055-.24-.037-.282.056-.041.093.01.167.157.222.146.056.24.037.281-.055Zm.719.694c.104-.074.083-.176-.063-.305-.146-.13-.27-.158-.375-.084-.104.074-.083.176.063.306.146.13.27.157.375.083Zm.656.889c.125-.074.125-.194 0-.361-.125-.167-.25-.213-.375-.139-.125.074-.125.194 0 .361.125.167.25.213.375.139Zm.969.889c.104-.111.073-.25-.094-.417-.167-.166-.313-.194-.438-.083-.124.111-.093.25.094.417.188.166.334.194.438.083Zm1.281.472c.042-.13-.052-.231-.281-.305-.23-.075-.365-.038-.407.11-.041.149.053.25.282.306.229.056.364.019.406-.11Zm1.063.306c.25 0 .375-.074.375-.223 0-.148-.125-.222-.375-.222s-.375.074-.375.222c0 .149.125.223.375.223Zm1.375-.111a.741.741 0 0 0 .28-.14c.063-.055.074-.101.032-.138 0-.185-.125-.26-.375-.222a.74.74 0 0 0-.281.138c-.063.056-.073.12-.032.195 0 .148.125.204.375.167Z"/></g><defs><clipPath id="ja"><path d="M0 0h24v24H0z"/></clipPath></defs></symbol><symbol viewBox="0 0 24 23" id="github-circle" xmlns="http://www.w3.org/2000/svg"><g clip-path="url(#ia)"><path d="M12 0C5.37 0 0 5.37 0 12c0 5.31 3.435 9.795 8.205 11.385.6.105.825-.255.825-.57 0-.285-.015-1.23-.015-2.235-3.015.555-3.795-.735-4.035-1.41-.135-.345-.72-1.41-1.23-1.695-.42-.225-1.02-.78-.015-.795.945-.015 1.62.87 1.845 1.23 1.08 1.815 2.805 1.305 3.495.99.105-.78.42-1.305.765-1.605-2.67-.3-5.46-1.335-5.46-5.925 0-1.305.465-2.385 1.23-3.225-.12-.3-.54-1.53.12-3.18 0 0 1.005-.315 3.3 1.23.96-.27 1.98-.405 3-.405s2.04.135 3 .405c2.295-1.56 3.3-1.23 3.3-1.23.66 1.65.24 2.88.12 3.18.765.84 1.23 1.905 1.23 3.225 0 4.605-2.805 5.625-5.475 5.925.435.375.81 1.095.81 2.22 0 1.605-.015 2.895-.015 3.3 0 .315.225.69.825.57A12.018 12.018 0 0 0 24 12c0-6.63-5.37-12-12-12Z"/></g><defs><clipPath id="ia"><path d="M0 0h24v24H0z"/></clipPath></defs></symbol><symbol viewBox="0 0 24 24" id="linkedin" xmlns="http://www.w3.org/2000/svg"><g clip-path="url(#la)"><path d="M5.448 24V7.807H.304V24h5.144ZM2.876 5.595c1.795 0 2.911-1.243 2.911-2.797C5.754 1.208 4.671 0 2.911 0 1.15 0 0 1.209 0 2.798c0 1.554 1.116 2.797 2.843 2.797h.033ZM8.296 24h5.144v-9.043c0-.484.034-.967.17-1.313.372-.967 1.218-1.969 2.64-1.969 1.86 0 2.606 1.485 2.606 3.662V24H24v-9.285c0-4.974-2.538-7.288-5.923-7.288-2.775 0-3.994 1.623-4.67 2.728h.034V7.807H8.296c.067 1.52 0 16.193 0 16.193Z"/></g><defs><clipPath id="la"><path d="M0 0h24v24H0z"/></clipPath></defs></symbol><symbol viewBox="0 0 24 24" id="linkedin-circle" xmlns="http://www.w3.org/2000/svg"><g clip-path="url(#ka)"><path fill-rule="evenodd" clip-rule="evenodd" d="M12 24c6.627 0 12-5.373 12-12S18.627 0 12 0 0 5.373 0 12s5.373 12 12 12ZM8.724 9.904V18H6.152V9.904h2.572Zm.17-2.505c0 .777-.559 1.399-1.456 1.399h-.017C6.558 8.798 6 8.176 6 7.398 6 6.605 6.575 6 7.455 6c.88 0 1.422.604 1.439 1.399ZM12.72 18h-2.572s.034-7.337 0-8.097h2.572v1.147c.342-.552.954-1.336 2.319-1.336C16.73 9.714 18 10.87 18 13.357V18h-2.572v-4.332c0-1.088-.373-1.83-1.303-1.83-.711 0-1.134.5-1.32.984-.068.173-.085.415-.085.657V18Z"/></g><defs><clipPath id="ka"><path d="M0 0h24v24H0z"/></clipPath></defs></symbol><symbol viewBox="0 0 24 24" id="moon" xmlns="http://www.w3.org/2000/svg"><g clip-path="url(#ma)"><path d="M9 .417a1.152 1.152 0 0 1 .12 1.287 10.812 10.812 0 0 0-1.317 5.19c0 6.031 4.917 10.915 10.977 10.915.79 0 1.56-.082 2.3-.24a1.18 1.18 0 0 1 1.215.475 1.099 1.099 0 0 1-.047 1.339A12.522 12.522 0 0 1 12.516 24C5.601 24 0 18.429 0 11.565 0 6.399 3.171 1.968 7.686.09A1.128 1.128 0 0 1 9 .417Z"/><path d="M16.191 4.722a.325.325 0 0 1 .618 0l.58 1.743c.26.777.869 1.386 1.646 1.646l1.743.58a.325.325 0 0 1 0 .618l-1.743.58a2.601 2.601 0 0 0-1.645 1.646l-.581 1.743a.325.325 0 0 1-.618 0l-.58-1.743a2.6 2.6 0 0 0-1.646-1.645l-1.743-.581a.326.326 0 0 1 0-.618l1.743-.58a2.6 2.6 0 0 0 1.646-1.646l.58-1.743ZM20.795.149a.218.218 0 0 1 .41 0l.388 1.16c.172.52.579.926 1.098 1.099l1.16.387a.218.218 0 0 1 0 .41l-1.16.388a1.734 1.734 0 0 0-1.098 1.098l-.387 1.16a.218.218 0 0 1-.412 0l-.387-1.16a1.734 1.734 0 0 0-1.098-1.098l-1.16-.387a.218.218 0 0 1 0-.411l1.16-.387a1.732 1.732 0 0 0 1.098-1.098l.387-1.161Z"/></g><defs><clipPath id="ma"><path d="M0 0h24v24H0z"/></clipPath></defs></symbol><symbol viewBox="0 0 24 24" id="sun" xmlns="http://www.w3.org/2000/svg"><g clip-path="url(#na)"><path d="M12 4.8a1.148 1.148 0 0 1-1.148-1.148V1.148a1.148 1.148 0 1 1 2.296 0v2.504A1.148 1.148 0 0 1 12 4.8ZM12 24a1.148 1.148 0 0 1-1.148-1.148v-2.504a1.148 1.148 0 1 1 2.296 0v2.504A1.148 1.148 0 0 1 12 24Zm5.903-16.755a1.148 1.148 0 0 1-.812-1.96l1.77-1.77a1.148 1.148 0 0 1 1.624 1.623l-1.77 1.77a1.144 1.144 0 0 1-.812.337ZM4.326 20.822a1.148 1.148 0 0 1-.811-1.96l1.77-1.77a1.148 1.148 0 1 1 1.624 1.622l-1.77 1.771a1.143 1.143 0 0 1-.813.337Zm18.526-7.674h-2.504a1.148 1.148 0 1 1 0-2.296h2.504a1.148 1.148 0 1 1 0 2.296Zm-19.2 0H1.148a1.148 1.148 0 1 1 0-2.296h2.504a1.148 1.148 0 1 1 0 2.296Zm16.022 7.674a1.145 1.145 0 0 1-.812-.337l-1.77-1.77a1.148 1.148 0 0 1 1.622-1.624l1.771 1.77a1.147 1.147 0 0 1-.811 1.96ZM6.097 7.245a1.142 1.142 0 0 1-.811-.336l-1.771-1.77a1.148 1.148 0 0 1 1.623-1.624l1.77 1.77a1.148 1.148 0 0 1-.811 1.96ZM12 17.322A5.322 5.322 0 1 1 17.322 12 5.328 5.328 0 0 1 12 17.322Z"/></g><defs><clipPath id="na"><path d="M0 0h24v24H0z"/></clipPath></defs></symbol></svg>