<svg width="128" height="128" viewBox="0 0 128 128" fill="none" xmlns="http://www.w3.org/2000/svg">
<path d="M1.4082 1.4082H126.592V126.593H1.4082V1.4082Z" fill="#F0DB4F"/>
<path d="M116.347 96.7369C115.43 91.0259 111.706 86.2288 100.675 81.7558C96.8431 79.9948 92.5711 78.7339 91.2981 75.8299C90.8461 74.1399 90.7861 73.1879 91.0721 72.1649C91.8931 68.8449 95.8561 67.8099 98.9971 68.7619C101.02 69.4399 102.935 70.9989 104.09 73.4859C109.492 69.9879 109.481 70.0109 113.253 67.6069C111.872 65.4659 111.135 64.4779 110.231 63.5619C106.982 59.9329 102.555 58.0639 95.4751 58.2069L91.7871 58.6839C88.2531 59.5769 84.8851 61.4319 82.9101 63.9189C76.9841 70.6429 78.6741 82.4108 85.8851 87.2538C92.9891 92.5858 103.425 93.7988 104.758 98.7848C106.055 104.889 100.272 106.865 94.5241 106.163C90.2881 105.282 87.9321 103.129 85.3851 99.2138C80.6971 101.927 80.6971 101.927 75.8771 104.699C77.0201 107.198 78.2211 108.329 80.1371 110.494C89.2051 119.692 111.897 119.24 115.967 105.318C116.132 104.84 117.228 101.652 116.347 96.7369ZM69.4621 58.9439H57.7531L57.7051 89.2158C57.7051 95.6538 58.0381 101.556 56.9911 103.365C55.2781 106.923 50.8391 106.482 48.8161 105.792C46.7571 104.78 45.7101 103.341 44.4971 101.307C44.1641 100.723 43.9141 100.271 43.8301 100.236L34.3101 106.066C35.8931 109.315 38.2251 112.135 41.2121 113.967C45.6741 116.645 51.6711 117.466 57.9431 116.026C62.0251 114.837 65.5471 112.374 67.3911 108.625C70.0571 103.71 69.4851 97.7609 69.4611 91.1809C69.5211 80.4459 69.4621 69.7129 69.4621 58.9439Z" fill="#101828"/>
</svg>
