<svg width="128" height="128" viewBox="0 0 128 128" fill="none" xmlns="http://www.w3.org/2000/svg">
<path d="M64.0006 75.3996C70.2966 75.3996 75.4006 70.2957 75.4006 63.9996C75.4006 57.7036 70.2966 52.5996 64.0006 52.5996C57.7045 52.5996 52.6006 57.7036 52.6006 63.9996C52.6006 70.2957 57.7045 75.3996 64.0006 75.3996Z" fill="#61DAFB"/>
<path d="M107.3 45.1996C105.1 44.3996 102.8 43.5996 100.4 42.8996C101 40.4996 101.5 38.0996 101.9 35.7996C104 22.5996 101.7 13.2996 95.3004 9.69961C93.4004 8.59961 91.3004 8.09961 88.9004 8.09961C81.9004 8.09961 73.0004 13.2996 64.0004 21.9996C55.0004 13.2996 46.1004 8.09961 39.1004 8.09961C36.7004 8.09961 34.6004 8.59961 32.7004 9.69961C26.3004 13.3996 24.0004 22.6996 26.1004 35.7996C26.5004 38.0996 27.0004 40.4996 27.6004 42.8996C25.2004 43.5996 22.9004 44.2996 20.7004 45.1996C8.20039 49.9996 1.40039 56.5996 1.40039 63.9996C1.40039 71.3996 8.30039 77.9996 20.7004 82.7996C22.9004 83.5996 25.2004 84.3996 27.6004 85.0996C27.0004 87.4996 26.5004 89.8996 26.1004 92.1996C24.0004 105.4 26.3004 114.7 32.7004 118.3C34.6004 119.4 36.7004 119.9 39.1004 119.9C46.2004 119.9 55.1004 114.7 64.0004 106C73.0004 114.7 81.9004 119.9 88.9004 119.9C91.3004 119.9 93.4004 119.4 95.3004 118.3C101.7 114.6 104 105.3 101.9 92.1996C101.5 89.8996 101 87.4996 100.4 85.0996C102.8 84.3996 105.1 83.6996 107.3 82.7996C119.8 77.9996 126.6 71.3996 126.6 63.9996C126.6 56.5996 119.8 49.9996 107.3 45.1996ZM92.5004 14.6996C96.6004 17.0996 98.0004 24.4996 96.3004 34.9996C96.0004 37.0996 95.5004 39.2996 94.9004 41.5996C89.7004 40.3996 84.2004 39.5996 78.4004 39.0996C75.0004 34.2996 71.5004 29.9996 68.0004 26.0996C75.4004 18.7996 82.9004 13.7996 89.0004 13.7996C90.3004 13.7996 91.5004 14.0996 92.5004 14.6996ZM81.3004 73.9996C79.5004 77.1996 77.4004 80.3996 75.2004 83.5996C71.5004 83.8996 67.8004 83.9996 64.0004 83.9996C60.1004 83.9996 56.4004 83.8996 52.8004 83.5996C50.6004 80.3996 48.6004 77.1996 46.8004 73.9996C44.9004 70.6996 43.1004 67.2996 41.5004 63.9996C43.1004 60.6996 44.9004 57.2996 46.8004 53.9996C48.6004 50.7996 50.7004 47.5996 52.9004 44.3996C56.6004 44.0996 60.3004 43.9996 64.1004 43.9996C68.0004 43.9996 71.7004 44.0996 75.3004 44.3996C77.5004 47.5996 79.5004 50.7996 81.3004 53.9996C83.2004 57.2996 85.0004 60.6996 86.6004 63.9996C84.9004 67.2996 83.2004 70.5996 81.3004 73.9996ZM89.6004 70.6996C91.1004 74.1996 92.3004 77.5996 93.4004 80.9996C90.0004 81.7996 86.4004 82.3996 82.6004 82.8996C83.8004 80.9996 85.1004 78.9996 86.2004 76.8996C87.4004 74.7996 88.5004 72.6996 89.6004 70.6996ZM64.0004 97.7996C61.6004 95.1996 59.3004 92.3996 57.1004 89.4996C59.4004 89.5996 61.7004 89.6996 64.0004 89.6996C66.3004 89.6996 68.6004 89.5996 70.9004 89.4996C68.7004 92.3996 66.4004 95.1996 64.0004 97.7996ZM45.4004 82.7996C41.6004 82.2996 38.0004 81.6996 34.6004 80.8996C35.7004 77.5996 36.9004 74.0996 38.4004 70.5996C39.5004 72.5996 40.6004 74.6996 41.8004 76.6996C43.0004 78.8996 44.2004 80.7996 45.4004 82.7996ZM38.4004 57.2996C36.9004 53.7996 35.7004 50.3996 34.6004 46.9996C38.0004 46.1996 41.6004 45.5996 45.4004 45.0996C44.2004 46.9996 42.9004 48.9996 41.8004 51.0996C40.6004 53.1996 39.5004 55.2996 38.4004 57.2996ZM64.0004 30.1996C66.4004 32.7996 68.7004 35.5996 70.9004 38.4996C68.6004 38.3996 66.3004 38.2996 64.0004 38.2996C61.7004 38.2996 59.4004 38.3996 57.1004 38.4996C59.3004 35.5996 61.6004 32.7996 64.0004 30.1996ZM86.2004 51.1996L82.6004 45.1996C86.4004 45.6996 90.0004 46.2996 93.4004 47.0996C92.3004 50.3996 91.1004 53.8996 89.6004 57.3996C88.5004 55.2996 87.4004 53.1996 86.2004 51.1996ZM31.7004 34.9996C30.0004 24.4996 31.4004 17.0996 35.5004 14.6996C36.5004 14.0996 37.7004 13.7996 39.0004 13.7996C45.0004 13.7996 52.5004 18.6996 60.0004 26.0996C56.5004 29.8996 53.0004 34.2996 49.6004 39.0996C43.8004 39.5996 38.3004 40.4996 33.1004 41.5996C32.5004 39.2996 32.1004 37.0996 31.7004 34.9996ZM7.00039 63.9996C7.00039 59.2996 12.7004 54.2996 22.7004 50.5996C24.7004 49.7996 26.9004 49.0996 29.1004 48.4996C30.7004 53.4996 32.7004 58.7996 35.1004 64.0996C32.7004 69.3996 30.6004 74.5996 29.1004 79.5996C15.3004 75.5996 7.00039 69.5996 7.00039 63.9996ZM35.5004 113.3C31.4004 110.9 30.0004 103.5 31.7004 92.9996C32.0004 90.8996 32.5004 88.6996 33.1004 86.3996C38.3004 87.5996 43.8004 88.3996 49.6004 88.8996C53.0004 93.6996 56.5004 97.9996 60.0004 101.9C52.6004 109.2 45.1004 114.2 39.0004 114.2C37.7004 114.2 36.5004 113.9 35.5004 113.3ZM96.3004 92.9996C98.0004 103.5 96.6004 110.9 92.5004 113.3C91.5004 113.9 90.3004 114.2 89.0004 114.2C83.0004 114.2 75.5004 109.3 68.0004 101.9C71.5004 98.0996 75.0004 93.6996 78.4004 88.8996C84.2004 88.3996 89.7004 87.4996 94.9004 86.3996C95.5004 88.6996 95.9004 90.8996 96.3004 92.9996ZM105.3 77.3996C103.3 78.1996 101.1 78.8996 98.9004 79.4996C97.3004 74.4996 95.3004 69.1996 92.9004 63.8996C95.3004 58.5996 97.4004 53.3996 98.9004 48.3996C112.7 52.3996 121 58.3996 121 63.9996C121 68.6996 115.2 73.6996 105.3 77.3996Z" fill="#61DAFB"/>
</svg>
