<svg width="128" height="128" viewBox="0 0 128 128" fill="none" xmlns="http://www.w3.org/2000/svg">
<path d="M3.65591 45.0429C3.65591 45.0429 0.628909 42.8519 4.26591 39.9299L12.7339 32.3359C12.7339 32.3359 15.1599 29.7769 17.7229 32.0079L95.8979 91.3359V119.786C95.8979 119.786 95.8589 124.254 90.1409 123.762L3.65591 45.0429Z" fill="#2489CA"/>
<path d="M23.8089 63.3789L3.65591 81.7419C3.65591 81.7419 1.58591 83.2849 3.65591 86.0469L13.0119 94.5739C13.0119 94.5739 15.2339 96.9689 18.5199 94.2459L39.8789 78.0079L23.8089 63.3789Z" fill="#1070B3"/>
<path d="M59.1839 63.5309L96.1369 35.2459L95.8979 6.94894C95.8979 6.94894 94.3199 0.772936 89.0549 3.98994L39.8789 48.8509L59.1839 63.5309Z" fill="#0877B9"/>
<path d="M90.1399 123.797C92.2849 126 94.8869 125.277 94.8869 125.277L123.684 111.055C127.371 108.535 126.855 105.41 126.855 105.41V20.4649C126.855 16.7299 123.043 15.4409 123.043 15.4409L98.0819 3.37994C92.6289 0.000936508 89.0549 3.98994 89.0549 3.98994C89.0549 3.98994 93.6479 0.672936 95.8979 6.94994V119.267C95.8979 120.04 95.7339 120.797 95.4059 121.481C94.7499 122.813 93.3199 124.051 89.9019 123.532L90.1399 123.797Z" fill="#3C99D4"/>
</svg>
