<svg width="128" height="128" viewBox="0 0 128 128" fill="none" xmlns="http://www.w3.org/2000/svg">
<path fill-rule="evenodd" clip-rule="evenodd" d="M64.0938 126.225C98.3688 126.173 126.115 98.2915 126.115 63.8995C126.115 30.0665 98.4968 2.20251 65.5018 1.61351C30.8498 0.995512 1.89377 29.1135 1.88477 63.2105C1.87477 98.2895 29.4968 126.275 64.0938 126.225ZM63.9928 4.63051C96.8998 4.61951 123.119 31.3555 123.109 64.9105C123.098 96.5895 96.1838 123.091 64.0168 123.098C31.2458 123.105 4.89177 96.5345 4.89277 63.4895C4.89477 31.2965 31.6588 4.64151 63.9928 4.63051ZM39.1568 35.8965C39.6948 37.6895 38.1888 38.3135 36.5878 38.4385C34.9028 38.5685 33.2188 38.6955 31.2628 38.8445C37.7188 58.0785 44.0778 77.0275 50.5878 96.4175C51.0518 95.6585 51.2428 95.4445 51.3268 95.1945C54.9008 84.5125 58.4948 73.8375 61.9778 63.1255C62.2958 62.1485 62.1378 60.8545 61.7898 59.8505C59.9468 54.5305 57.7388 49.3265 56.1228 43.9425C55.0178 40.2565 53.5518 37.8715 49.1948 38.2985C48.4528 38.3715 47.5468 36.7745 46.7158 35.9495C47.7208 35.3495 48.7188 34.2455 49.7328 34.2305C58.6049 34.0942 67.4787 34.0968 76.3508 34.2385C77.3688 34.2555 78.3668 35.3885 79.3718 36.0035C78.4918 36.8075 77.7328 38.0135 76.7038 38.3245C75.0528 38.8225 73.2218 38.7285 71.2458 38.9045L90.5948 96.4645C93.5258 86.7285 96.2528 77.7885 98.9048 68.8255C101.271 60.8245 99.8608 53.3525 95.5828 46.3055C94.2968 44.1865 92.7168 42.1305 91.9878 39.8195C91.1598 37.1905 90.4718 34.1975 90.9108 31.5605C91.6558 27.0915 95.0848 24.8725 99.7248 24.4475C74.3328 0.881514 34.4308 9.31751 19.7278 34.9225C25.3878 34.6615 30.7918 34.3185 36.1998 34.2445C37.2218 34.2315 38.9168 35.0955 39.1568 35.8965ZM49.2738 113.868C49.1558 114.213 49.1488 114.597 49.0558 115.17C59.9988 118.204 70.7308 117.985 81.7148 114.284L64.9348 68.3235C59.5648 83.9345 54.4148 98.8985 49.2738 113.868ZM40.8178 111.79L15.5368 42.4395C4.13177 64.7175 12.8078 98.7075 40.8178 111.79ZM117.246 67.2275C118.048 56.6935 114.414 42.1085 111.276 40.1025C110.926 43.9775 111.17 48.2885 110.058 52.2165C107.441 61.4715 104.241 70.5655 101.159 79.6845C97.8088 89.5965 94.3268 99.4635 90.9018 109.351C106.994 99.8115 115.837 85.7325 117.246 67.2275Z" fill="#1B769C"/>
</svg>
